<?xml version="1.0" standalone="no"?>
<!DOCTYPE svg PUBLIC "-//W3C//DTD SVG 20010904//EN"
 "http://www.w3.org/TR/2001/REC-SVG-20010904/DTD/svg10.dtd">
<svg version="1.0" xmlns="http://www.w3.org/2000/svg"
 width="500.000000pt" height="500.000000pt" viewBox="0 0 500.000000 500.000000"
 preserveAspectRatio="xMidYMid meet">

<g transform="translate(0.000000,500.000000) scale(0.100000,-0.100000)"
fill="#000000" stroke="none">
<path d="M2730 4172 c0 -17 11 -22 73 -32 39 -6 78 -13 85 -15 10 -4 12 -138
10 -647 l-3 -642 -80 -16 c-61 -11 -81 -19 -83 -32 -3 -17 20 -18 371 -18 419
0 478 6 601 62 252 116 387 362 373 683 -6 142 -23 210 -79 325 -74 152 -223
276 -393 326 -52 15 -117 18 -467 21 -401 4 -408 4 -408 -15z m872 -69 c117
-55 193 -153 234 -304 26 -93 27 -543 1 -637 -27 -98 -66 -173 -122 -228 -100
-101 -183 -124 -447 -124 l-178 0 0 666 0 665 223 -3 222 -3 67 -32z"/>
<path d="M1410 3900 c0 -154 -3 -280 -6 -280 -3 0 -24 16 -46 34 -72 62 -196
89 -310 66 -206 -40 -348 -226 -348 -455 0 -265 185 -465 430 -465 87 0 153
21 223 69 l56 40 17 -45 17 -44 73 0 74 0 -2 678 -3 677 -87 3 -88 3 0 -281z
m-147 -357 c48 -20 102 -83 122 -143 16 -50 22 -184 9 -236 -10 -41 -42 -105
-68 -132 -60 -66 -198 -92 -280 -53 -90 44 -155 145 -164 257 -18 235 173 389
381 307z"/>
<path d="M1916 2938 c-40 -57 12 -117 79 -92 37 15 38 82 1 106 -23 16 -65 8
-80 -14z"/>
<path d="M1065 2721 c-46 -21 -101 -78 -123 -130 -8 -20 -15 -65 -16 -101 0
-108 63 -201 161 -236 79 -28 185 -12 255 37 l30 22 -29 29 -30 29 -37 -22
c-44 -26 -119 -28 -164 -5 -32 16 -82 74 -82 94 0 9 49 12 175 12 l175 0 0 43
c0 101 -51 195 -124 228 -53 24 -139 24 -191 0z m154 -86 c26 -13 61 -67 61
-94 0 -7 -41 -11 -125 -11 -81 0 -125 4 -125 10 0 21 30 69 56 89 32 25 92 28
133 6z"/>
<path d="M1550 2718 c-60 -31 -93 -81 -87 -132 9 -67 61 -105 185 -136 42 -11
82 -40 82 -60 0 -6 -12 -22 -26 -35 -39 -36 -106 -35 -143 3 -27 26 -29 27
-64 13 -43 -16 -45 -28 -15 -66 68 -87 236 -85 311 4 21 26 27 43 27 83 0 70
-39 108 -141 138 -41 12 -84 29 -96 36 -49 31 -11 84 58 84 29 0 43 -6 58 -26
19 -24 24 -25 58 -17 45 10 51 30 22 67 -50 64 -152 83 -229 44z"/>
<path d="M2245 2721 c-148 -69 -181 -263 -64 -380 77 -78 180 -85 302 -23 15
8 6 -65 -13 -96 -31 -50 -75 -72 -147 -72 -69 0 -107 11 -140 42 l-23 21 0
-56 0 -56 55 -20 c140 -53 288 -9 348 102 21 40 22 56 25 295 l3 252 -40 0
c-23 0 -41 -3 -41 -7 -1 -29 -18 -31 -65 -8 -60 31 -141 33 -200 6z m186 -87
c81 -41 77 -195 -5 -249 -33 -22 -103 -22 -144 -1 -92 48 -97 193 -9 246 39
24 116 26 158 4z"/>
<path d="M2880 2733 c-8 -3 -27 -14 -42 -25 -27 -18 -27 -18 -38 2 -8 15 -21
20 -50 20 l-40 0 0 -240 0 -240 50 0 50 0 0 154 c0 85 4 166 10 180 24 63 134
87 187 42 l28 -24 3 -176 3 -176 45 0 44 0 0 178 c0 167 -1 182 -23 222 -30
57 -90 90 -161 89 -28 0 -58 -3 -66 -6z"/>
<path d="M3380 2724 c-113 -49 -176 -191 -136 -310 55 -167 260 -228 408 -123
l30 22 -30 30 c-29 29 -32 29 -55 14 -75 -49 -161 -40 -219 22 -65 69 -62 71
138 71 l177 0 -6 59 c-9 102 -61 186 -134 217 -42 18 -129 17 -173 -2z m158
-99 c30 -25 56 -78 45 -89 -4 -3 -60 -6 -125 -6 -114 0 -118 1 -118 21 0 12
17 39 39 60 34 34 45 39 84 39 34 0 53 -6 75 -25z"/>
<path d="M3955 2728 c-11 -6 -30 -20 -42 -31 l-22 -20 -7 27 c-5 22 -11 26
-45 26 l-39 0 0 -240 0 -240 45 0 45 0 1 143 c0 82 5 157 12 177 18 51 70 82
129 78 l47 -3 10 39 c5 22 8 43 5 48 -8 12 -116 9 -139 -4z"/>
<path d="M1913 2558 c4 -95 7 -203 7 -240 l0 -68 45 0 45 0 0 240 0 240 -52 0
-51 0 6 -172z"/>
<path d="M3250 2171 c-232 -63 -398 -240 -466 -496 -26 -99 -27 -351 0 -450
69 -260 239 -439 476 -500 83 -21 253 -22 335 0 176 45 332 172 412 335 60
120 85 234 85 384 0 192 -37 331 -124 463 -84 129 -230 233 -378 267 -89 21
-257 20 -340 -3z m300 -37 c149 -44 256 -170 306 -359 26 -100 27 -545 1 -649
-40 -158 -133 -284 -252 -341 -79 -38 -223 -47 -307 -20 -158 52 -263 185
-303 384 -14 66 -16 128 -13 338 4 235 6 264 27 328 56 170 153 276 296 321
57 18 182 17 245 -2z"/>
</g>
</svg>
