<?xml version="1.0" standalone="no"?>
<!DOCTYPE svg PUBLIC "-//W3C//DTD SVG 20010904//EN"
 "http://www.w3.org/TR/2001/REC-SVG-20010904/DTD/svg10.dtd">
<svg version="1.0" xmlns="http://www.w3.org/2000/svg"
 width="500.000000pt" height="500.000000pt" viewBox="0 0 500.000000 500.000000"
 preserveAspectRatio="xMidYMid meet">

<g transform="translate(0.000000,500.000000) scale(0.100000,-0.100000)"
fill="#000000" stroke="none">
<path d="M0 2500 l0 -2500 2500 0 2500 0 0 2500 0 2500 -2500 0 -2500 0 0
-2500z m3554 1685 c236 -42 436 -230 501 -470 22 -82 30 -272 16 -364 -42
-266 -192 -452 -436 -538 l-80 -28 -412 -3 c-401 -3 -413 -3 -413 16 0 16 13
21 83 33 l82 14 0 645 0 645 -50 7 c-114 18 -115 18 -115 38 0 20 9 20 373 20
274 -1 393 -4 451 -15z m-1966 -542 l2 -533 195 0 195 0 0 -74 c0 -64 3 -75
22 -88 29 -20 29 -75 0 -99 -17 -13 -22 -28 -22 -68 0 -39 4 -51 15 -51 13 0
15 -33 15 -240 l0 -240 -50 0 -50 0 0 125 0 125 -72 0 -71 0 21 -23 c68 -72
35 -178 -70 -221 -78 -33 -190 -10 -236 49 -31 39 -28 50 17 67 38 15 39 15
57 -9 13 -16 32 -26 60 -30 71 -9 132 40 100 81 -19 26 -184 78 -265 83 l-74
5 7 -26 6 -26 -180 0 c-99 0 -180 -3 -180 -7 0 -20 43 -75 72 -93 44 -27 121
-27 172 1 l38 20 29 -27 c34 -32 28 -43 -35 -77 -33 -17 -58 -22 -127 -22 -78
0 -90 3 -135 30 -59 37 -109 114 -119 185 -15 111 55 232 156 267 42 15 49 22
49 44 0 25 -3 27 -59 32 -160 14 -309 153 -357 332 -30 110 -13 258 41 365
112 222 404 299 600 158 l55 -39 0 281 0 281 88 -3 87 -3 3 -532z m873 -932
c25 -19 33 -21 40 -10 5 8 9 17 9 22 0 4 18 7 40 7 l40 0 0 -231 c0 -136 -5
-248 -11 -274 -17 -69 -78 -131 -147 -151 -69 -20 -181 -15 -234 11 -37 18
-38 20 -38 74 l0 54 23 -20 c49 -44 163 -57 227 -25 44 22 80 75 80 119 l0 34
-29 -15 c-127 -66 -266 -24 -326 98 -23 48 -27 66 -23 120 5 89 44 150 118
189 49 25 63 28 127 25 56 -3 79 -8 104 -27z m584 6 c22 -13 49 -40 62 -62 21
-37 23 -52 23 -222 l0 -183 -44 0 -45 0 -3 176 -3 176 -28 24 c-52 45 -150 25
-182 -36 -11 -22 -15 -65 -15 -185 l0 -155 -50 0 -50 0 0 240 0 240 44 0 c36
0 46 -4 51 -20 6 -20 7 -20 33 -2 38 27 50 30 112 31 39 0 66 -6 95 -22z m542
-9 c52 -34 93 -114 100 -197 l6 -61 -177 0 c-201 0 -203 -1 -137 -72 35 -38
43 -42 98 -46 47 -3 68 0 103 18 l43 22 29 -30 30 -29 -30 -22 c-168 -119
-399 -24 -419 173 -10 100 39 199 124 249 43 25 56 28 119 25 57 -3 79 -9 111
-30z m513 26 c0 -3 -5 -24 -11 -47 -10 -42 -11 -42 -50 -39 -48 5 -93 -12
-119 -46 -16 -20 -20 -40 -20 -112 0 -48 -3 -121 -6 -163 l-7 -77 -43 0 -44 0
0 240 0 240 39 0 c34 0 40 -4 45 -26 l7 -27 22 20 c12 11 31 25 42 31 20 12
145 17 145 6z m-490 -555 c113 -31 185 -74 275 -164 64 -63 90 -98 122 -165
122 -250 117 -574 -14 -808 -45 -81 -145 -187 -217 -231 -218 -131 -501 -128
-709 8 -98 64 -169 146 -222 256 -60 124 -75 188 -82 345 -4 111 -2 152 15
231 56 272 239 475 480 534 91 21 263 19 352 -6z"/>
<path d="M3090 3486 l0 -666 178 0 c207 0 290 14 370 62 96 58 166 161 199
295 25 99 25 528 0 627 -36 145 -120 255 -237 310 l-65 31 -222 3 -223 3 0
-665z"/>
<path d="M1100 3560 c-86 -16 -155 -76 -197 -170 -26 -56 -23 -203 3 -261 41
-88 113 -149 193 -165 l31 -6 0 76 0 76 125 0 124 0 10 38 c16 54 13 191 -4
248 -35 118 -158 189 -285 164z"/>
<path d="M1086 2629 c-26 -21 -56 -68 -56 -89 0 -7 18 -10 48 -8 l47 3 3 58
c2 31 -1 57 -6 57 -5 0 -21 -9 -36 -21z"/>
<path d="M2273 2630 c-87 -52 -83 -198 6 -245 72 -37 162 -12 196 55 33 64 8
167 -46 195 -40 21 -117 19 -156 -5z"/>
<path d="M3379 2611 c-22 -21 -39 -48 -39 -60 0 -20 4 -21 118 -21 65 0 121 3
125 6 11 11 -15 64 -45 89 -22 19 -41 25 -75 25 -39 0 -50 -5 -84 -39z"/>
<path d="M3305 2147 c-64 -22 -105 -46 -156 -94 -63 -59 -101 -120 -136 -218
l-28 -80 0 -290 c0 -276 1 -294 23 -365 47 -149 127 -250 242 -304 87 -41 224
-48 312 -17 147 51 242 166 289 349 16 65 19 111 19 332 0 223 -3 267 -20 334
-40 159 -125 271 -248 329 -58 27 -79 32 -162 34 -59 2 -110 -2 -135 -10z"/>
</g>
</svg>
